<?xml version="1.0" standalone="no"?>
<!DOCTYPE svg PUBLIC "-//W3C//DTD SVG 20010904//EN"
 "http://www.w3.org/TR/2001/REC-SVG-20010904/DTD/svg10.dtd">
<svg version="1.0" xmlns="http://www.w3.org/2000/svg"
 width="74.760133pt" height="73.535162pt" viewBox="0 0 74.760133 73.535162"
 preserveAspectRatio="xMidYMid meet">
<g transform="translate(-6.015236,75.922067) rotate(-360.00) scale(0.067925,-0.067925)"
fill="#000000" stroke="none">
<path d="M96 1107 c8 -7 74 -35 147 -61 73 -27 138 -54 145 -60 23 -21 37
-136 21 -175 -8 -21 -18 -30 -22 -20 -3 9 2 32 12 51 17 33 17 33 -12 8 -59
-52 -82 -217 -44 -309 31 -75 59 -227 49 -266 -7 -29 -21 -38 -72 -45 -34 -5
-76 -11 -92 -14 -16 -3 -35 -7 -41 -8 -16 -2 4 -136 23 -161 19 -23 47 0 47
38 1 21 17 26 88 30 49 2 97 11 107 20 14 12 19 10 19 -6 0 -28 111 -106 132
-92 9 5 12 23 7 39 -6 20 7 54 41 105 86 130 90 140 66 178 -12 18 -48 41 -80
50 -52 16 -62 27 -88 95 -27 70 -27 81 -7 111 19 29 19 46 3 118 -10 46 -28
97 -39 113 -23 34 -27 105 -6 118 8 5 164 -12 348 -36 184 -25 337 -43 340
-39 10 10 -53 20 -370 61 -161 21 -305 45 -319 52 -14 8 -49 14 -77 14 -28 0
-111 23 -184 51 -137 53 -166 61 -142 40z m365 -144 c-6 -17 -11 -17 -28 1
-28 28 -26 36 8 27 16 -4 25 -16 20 -28z m22 -220 c-4 -20 -8 -20 -38 1 -27
19 -30 28 -17 53 16 30 16 30 38 -1 12 -17 20 -41 17 -53z m-86 -28 c0 -36 9
-56 29 -67 16 -8 43 -36 62 -62 27 -38 28 -45 8 -37 -36 14 -31 -15 11 -56 36
-37 36 -37 -11 -37 -26 0 -57 -7 -69 -15 -16 -11 -6 -12 35 -5 45 8 73 2 126
-24 37 -18 77 -38 89 -44 43 -20 33 -72 -31 -162 -51 -73 -67 -87 -93 -79 -57
17 -60 33 -14 83 24 26 53 60 65 75 18 24 17 27 -8 24 -56 -6 -147 1 -165 12
-25 16 -34 108 -13 134 13 17 12 20 -7 13 -33 -13 -78 147 -66 233 13 81 52
91 52 14z m133 -14 c0 -38 -8 -26 -20 28 -8 32 -6 38 5 22 8 -12 15 -35 15
-50z m-69 -9 c5 -19 0 -30 -13 -30 -12 0 -21 3 -21 7 0 3 -4 16 -9 29 -6 15
-1 23 13 23 12 0 25 -13 30 -29z m73 -39 c-10 -4 -19 -18 -19 -30 0 -19 -4
-20 -22 -5 -28 23 -15 45 27 43 18 0 24 -4 14 -8z m-22 -367 c15 -4 10 -22
-17 -69 -37 -61 -40 -63 -130 -71 -51 -4 -94 -7 -96 -6 -1 0 1 16 6 34 6 22
19 32 44 32 55 0 93 27 93 65 0 29 6 33 41 28 22 -4 49 -10 59 -13z m38 -44
c-13 -20 -27 -34 -30 -30 -9 8 29 68 43 68 7 0 1 -17 -13 -38z m-311 -79 c10
-36 -3 -104 -20 -104 -7 0 -13 19 -13 43 0 23 -4 53 -9 66 -6 15 -1 23 13 23
12 0 25 -12 29 -28z m320 -63 c40 -24 46 -33 27 -38 -14 -3 -44 12 -66 33 -50
46 -30 49 39 5z"/>
</g>
</svg>
